%TF.GenerationSoftware,Altium Limited,Altium Designer,23.9.2 (47)*%
G04 Layer_Color=8421504*
%FSLAX44Y44*%
%MOMM*%
%TF.SameCoordinates,EA472C54-7DB4-4638-A036-459D61F9907A*%
%TF.FilePolarity,Positive*%
%TF.FileFunction,Paste,Top*%
%TF.Part,Single*%
G01*
G75*
%TA.AperFunction,SMDPad,CuDef*%
%ADD12R,1.0500X1.3000*%
%ADD13R,0.6000X1.1000*%
%ADD14R,1.6000X3.0000*%
%ADD15O,0.3500X2.0000*%
%ADD16R,1.8500X0.6000*%
%ADD17R,0.4600X0.8400*%
%ADD18R,0.9000X0.5000*%
%ADD19R,1.4000X0.9500*%
%ADD20R,0.9000X1.0000*%
%ADD21R,0.6200X0.5800*%
%ADD22R,2.8000X2.8000*%
%ADD23R,0.6500X0.2000*%
%ADD24R,0.7500X0.2000*%
%ADD25R,0.2000X0.6500*%
%ADD26R,0.2000X0.7500*%
%ADD29R,4.0000X2.0000*%
%ADD30R,1.1000X0.2500*%
%ADD31R,0.8000X0.2500*%
%ADD32R,0.2500X1.1000*%
%ADD33R,0.2500X0.7000*%
%ADD34R,1.5000X1.0000*%
%ADD35R,0.9000X0.9000*%
%ADD36R,0.9500X1.0000*%
%ADD37R,5.3000X2.0000*%
%ADD38R,3.2000X1.5000*%
%ADD40R,0.2393X0.8100*%
%ADD41R,0.2393X0.9096*%
%ADD42R,0.8100X0.2393*%
%ADD43R,0.9096X0.2393*%
%ADD44R,0.6000X1.0500*%
%ADD45R,3.1500X2.2000*%
%ADD46R,3.1500X2.2000*%
%ADD47R,2.1500X2.3000*%
%ADD48R,2.7000X1.1500*%
%ADD49R,1.1500X1.8000*%
%ADD50R,5.5000X1.7000*%
%ADD51R,1.1500X1.4500*%
%ADD52R,1.0500X1.4000*%
%ADD53R,1.0000X0.9500*%
%ADD54R,0.6200X0.6200*%
%ADD55R,1.8000X4.4000*%
%ADD56C,2.2000*%
%ADD57R,0.6200X0.6200*%
%ADD58R,1.1500X2.7000*%
%ADD59R,0.2500X0.8000*%
%ADD60R,0.7000X0.2500*%
%ADD61R,2.0000X4.0000*%
%ADD62R,0.5800X0.6200*%
G04:AMPARAMS|DCode=63|XSize=0.62mm|YSize=0.58mm|CornerRadius=0mm|HoleSize=0mm|Usage=FLASHONLY|Rotation=135.000|XOffset=0mm|YOffset=0mm|HoleType=Round|Shape=Rectangle|*
%AMROTATEDRECTD63*
4,1,4,0.4243,-0.0141,0.0141,-0.4243,-0.4243,0.0141,-0.0141,0.4243,0.4243,-0.0141,0.0*
%
%ADD63ROTATEDRECTD63*%

%ADD64R,2.2000X3.1500*%
%ADD65R,1.8000X1.1500*%
%ADD66R,4.4000X1.8000*%
%TA.AperFunction,Conductor*%
%ADD79R,0.6000X1.9500*%
%ADD80R,1.9500X0.6000*%
%TA.AperFunction,NonConductor*%
%ADD199R,1.5601X1.5601*%
%ADD200R,1.5601X1.5601*%
G36*
X662738Y548899D02*
X660288Y549174D01*
X655549Y550536D01*
X651106Y552674D01*
X647084Y555527D01*
X643597Y559014D01*
X640744Y563036D01*
X638606Y567479D01*
X637244Y572218D01*
X636969Y574668D01*
X636969Y574668D01*
X647268D01*
X647572Y573244D01*
X648502Y570485D01*
X649843Y567902D01*
X651562Y565553D01*
X653620Y563494D01*
X655969Y561774D01*
X658552Y560434D01*
X661310Y559503D01*
X662735Y559199D01*
X662735Y559199D01*
X662738D01*
X662738Y548899D01*
D02*
G37*
G36*
X636969Y581168D02*
X637244Y583618D01*
X638606Y588357D01*
X640744Y592800D01*
X643597Y596822D01*
X647084Y600309D01*
X651106Y603162D01*
X655549Y605299D01*
X660288Y606662D01*
X662738Y606937D01*
X662738D01*
Y596638D01*
X661314Y596334D01*
X658555Y595404D01*
X655972Y594063D01*
X653623Y592344D01*
X651564Y590286D01*
X649845Y587937D01*
X648503Y585354D01*
X647573Y582596D01*
X647269Y581171D01*
X647269D01*
Y581168D01*
X636969D01*
D02*
G37*
G36*
X695007Y574668D02*
X694732Y572218D01*
X693370Y567479D01*
X691232Y563036D01*
X688379Y559014D01*
X684892Y555527D01*
X680870Y552674D01*
X676427Y550536D01*
X671688Y549174D01*
X669238Y548899D01*
Y548899D01*
Y559198D01*
X670662Y559502D01*
X673421Y560432D01*
X676004Y561773D01*
X678353Y563492D01*
X680412Y565550D01*
X682132Y567899D01*
X683473Y570482D01*
X684403Y573240D01*
X684707Y574665D01*
Y574665D01*
Y574668D01*
X695007Y574668D01*
D02*
G37*
G36*
X669238Y606937D02*
X671688Y606662D01*
X676427Y605299D01*
X680870Y603162D01*
X684892Y600309D01*
X688379Y596822D01*
X691232Y592800D01*
X693370Y588357D01*
X694732Y583618D01*
X695007Y581168D01*
D01*
X684708D01*
X684404Y582592D01*
X683474Y585351D01*
X682133Y587934D01*
X680414Y590283D01*
X678356Y592341D01*
X676007Y594062D01*
X673424Y595402D01*
X670666Y596333D01*
X669241Y596637D01*
D01*
X669238D01*
Y606937D01*
D02*
G37*
G36*
X892738Y548899D02*
X890288Y549174D01*
X885549Y550536D01*
X881106Y552674D01*
X877084Y555527D01*
X873597Y559014D01*
X870744Y563036D01*
X868606Y567479D01*
X867244Y572218D01*
X866969Y574668D01*
X866969Y574668D01*
X877268D01*
X877572Y573244D01*
X878502Y570485D01*
X879843Y567902D01*
X881562Y565553D01*
X883620Y563494D01*
X885969Y561774D01*
X888552Y560434D01*
X891310Y559503D01*
X892735Y559199D01*
X892735Y559199D01*
X892738D01*
X892738Y548899D01*
D02*
G37*
G36*
X866969Y581168D02*
X867244Y583618D01*
X868606Y588357D01*
X870744Y592800D01*
X873597Y596822D01*
X877084Y600309D01*
X881106Y603162D01*
X885549Y605299D01*
X890288Y606662D01*
X892738Y606937D01*
X892738D01*
Y596638D01*
X891314Y596334D01*
X888555Y595404D01*
X885972Y594063D01*
X883623Y592344D01*
X881564Y590286D01*
X879845Y587937D01*
X878503Y585354D01*
X877573Y582596D01*
X877269Y581171D01*
X877269D01*
Y581168D01*
X866969D01*
D02*
G37*
G36*
X925007Y574668D02*
X924732Y572218D01*
X923370Y567479D01*
X921232Y563036D01*
X918379Y559014D01*
X914892Y555527D01*
X910870Y552674D01*
X906427Y550536D01*
X901688Y549174D01*
X899238Y548899D01*
Y548899D01*
Y559198D01*
X900662Y559502D01*
X903421Y560432D01*
X906004Y561773D01*
X908353Y563492D01*
X910412Y565550D01*
X912132Y567899D01*
X913473Y570482D01*
X914403Y573240D01*
X914707Y574665D01*
Y574665D01*
Y574668D01*
X925007Y574668D01*
D02*
G37*
G36*
X899238Y606937D02*
X901688Y606662D01*
X906427Y605299D01*
X910870Y603162D01*
X914892Y600309D01*
X918379Y596822D01*
X921232Y592800D01*
X923370Y588357D01*
X924732Y583618D01*
X925007Y581168D01*
D01*
X914708D01*
X914404Y582592D01*
X913474Y585351D01*
X912133Y587934D01*
X910414Y590283D01*
X908356Y592341D01*
X906007Y594062D01*
X903424Y595402D01*
X900666Y596333D01*
X899241Y596637D01*
D01*
X899238D01*
Y606937D01*
D02*
G37*
G36*
X662738Y1128899D02*
X660288Y1129174D01*
X655549Y1130536D01*
X651106Y1132674D01*
X647084Y1135527D01*
X643597Y1139014D01*
X640744Y1143036D01*
X638606Y1147479D01*
X637244Y1152218D01*
X636969Y1154668D01*
X636969Y1154668D01*
X647268D01*
X647572Y1153244D01*
X648502Y1150485D01*
X649843Y1147902D01*
X651562Y1145553D01*
X653620Y1143494D01*
X655969Y1141775D01*
X658552Y1140434D01*
X661310Y1139503D01*
X662735Y1139199D01*
X662735Y1139199D01*
X662738D01*
X662738Y1128899D01*
D02*
G37*
G36*
X636969Y1161168D02*
X637244Y1163618D01*
X638606Y1168357D01*
X640744Y1172800D01*
X643597Y1176822D01*
X647084Y1180309D01*
X651106Y1183161D01*
X655549Y1185300D01*
X660288Y1186662D01*
X662738Y1186936D01*
X662738D01*
Y1176638D01*
X661314Y1176334D01*
X658555Y1175404D01*
X655972Y1174063D01*
X653623Y1172344D01*
X651564Y1170286D01*
X649845Y1167937D01*
X648503Y1165354D01*
X647573Y1162596D01*
X647269Y1161171D01*
X647269D01*
Y1161168D01*
X636969D01*
D02*
G37*
G36*
X695007Y1154668D02*
X694732Y1152218D01*
X693370Y1147479D01*
X691232Y1143036D01*
X688379Y1139014D01*
X684892Y1135527D01*
X680870Y1132674D01*
X676427Y1130536D01*
X671688Y1129174D01*
X669238Y1128899D01*
Y1128899D01*
Y1139198D01*
X670662Y1139502D01*
X673421Y1140432D01*
X676004Y1141773D01*
X678353Y1143492D01*
X680412Y1145550D01*
X682132Y1147899D01*
X683473Y1150482D01*
X684403Y1153240D01*
X684707Y1154665D01*
Y1154665D01*
Y1154668D01*
X695007Y1154668D01*
D02*
G37*
G36*
X669238Y1186936D02*
X671688Y1186662D01*
X676427Y1185300D01*
X680870Y1183161D01*
X684892Y1180309D01*
X688379Y1176822D01*
X691232Y1172800D01*
X693370Y1168357D01*
X694732Y1163618D01*
X695007Y1161168D01*
D01*
X684708D01*
X684404Y1162592D01*
X683474Y1165351D01*
X682133Y1167934D01*
X680414Y1170283D01*
X678356Y1172342D01*
X676007Y1174062D01*
X673424Y1175403D01*
X670666Y1176333D01*
X669241Y1176637D01*
D01*
X669238D01*
Y1186936D01*
D02*
G37*
G36*
X892738Y1128899D02*
X890288Y1129174D01*
X885549Y1130536D01*
X881106Y1132674D01*
X877084Y1135527D01*
X873597Y1139014D01*
X870744Y1143036D01*
X868606Y1147479D01*
X867244Y1152218D01*
X866969Y1154668D01*
X866969Y1154668D01*
X877268D01*
X877572Y1153244D01*
X878502Y1150485D01*
X879843Y1147902D01*
X881562Y1145553D01*
X883620Y1143494D01*
X885969Y1141775D01*
X888552Y1140434D01*
X891310Y1139503D01*
X892735Y1139199D01*
X892735Y1139199D01*
X892738D01*
X892738Y1128899D01*
D02*
G37*
G36*
X866969Y1161168D02*
X867244Y1163618D01*
X868606Y1168357D01*
X870744Y1172800D01*
X873597Y1176822D01*
X877084Y1180309D01*
X881106Y1183161D01*
X885549Y1185300D01*
X890288Y1186662D01*
X892738Y1186936D01*
X892738D01*
Y1176638D01*
X891314Y1176334D01*
X888555Y1175404D01*
X885972Y1174063D01*
X883623Y1172344D01*
X881564Y1170286D01*
X879845Y1167937D01*
X878503Y1165354D01*
X877573Y1162596D01*
X877269Y1161171D01*
X877269D01*
Y1161168D01*
X866969D01*
D02*
G37*
G36*
X925007Y1154668D02*
X924732Y1152218D01*
X923370Y1147479D01*
X921232Y1143036D01*
X918379Y1139014D01*
X914892Y1135527D01*
X910870Y1132674D01*
X906427Y1130536D01*
X901688Y1129174D01*
X899238Y1128899D01*
Y1128899D01*
Y1139198D01*
X900662Y1139502D01*
X903421Y1140432D01*
X906004Y1141773D01*
X908353Y1143492D01*
X910412Y1145550D01*
X912132Y1147899D01*
X913473Y1150482D01*
X914403Y1153240D01*
X914707Y1154665D01*
Y1154665D01*
Y1154668D01*
X925007Y1154668D01*
D02*
G37*
G36*
X899238Y1186936D02*
X901688Y1186662D01*
X906427Y1185300D01*
X910870Y1183161D01*
X914892Y1180309D01*
X918379Y1176822D01*
X921232Y1172800D01*
X923370Y1168357D01*
X924732Y1163618D01*
X925007Y1161168D01*
D01*
X914708D01*
X914404Y1162592D01*
X913474Y1165351D01*
X912133Y1167934D01*
X910414Y1170283D01*
X908356Y1172342D01*
X906007Y1174062D01*
X903424Y1175403D01*
X900666Y1176333D01*
X899241Y1176637D01*
D01*
X899238D01*
Y1186936D01*
D02*
G37*
D12*
X619250Y461500D02*
D03*
Y438500D02*
D03*
X600750D02*
D03*
Y461500D02*
D03*
X679250Y1289000D02*
D03*
Y1266000D02*
D03*
X660750D02*
D03*
Y1289000D02*
D03*
X219250Y461500D02*
D03*
Y438500D02*
D03*
X200750D02*
D03*
Y461500D02*
D03*
D13*
X887000Y1467500D02*
D03*
X868000D02*
D03*
Y1492500D02*
D03*
X877500D02*
D03*
X887000D02*
D03*
X613000Y1492500D02*
D03*
X632000D02*
D03*
Y1467500D02*
D03*
X622500D02*
D03*
X613000D02*
D03*
D14*
X890000Y1533000D02*
D03*
Y1577000D02*
D03*
X610000Y1533000D02*
D03*
Y1577000D02*
D03*
D15*
X892250Y1344000D02*
D03*
X885750D02*
D03*
X879250D02*
D03*
X872750D02*
D03*
X892250Y1286000D02*
D03*
X885750D02*
D03*
X879250D02*
D03*
X872750D02*
D03*
D16*
X441500Y1038850D02*
D03*
Y1026150D02*
D03*
X378500D02*
D03*
Y1038850D02*
D03*
X441500Y976350D02*
D03*
Y963650D02*
D03*
X378500D02*
D03*
Y976350D02*
D03*
D17*
X765000Y1488600D02*
D03*
Y1511400D02*
D03*
X735000Y1488600D02*
D03*
Y1511400D02*
D03*
D18*
X688000Y137500D02*
D03*
X662000D02*
D03*
X312000D02*
D03*
X338000D02*
D03*
X712000D02*
D03*
X738000D02*
D03*
X288000D02*
D03*
X262000D02*
D03*
D19*
X130000Y1595000D02*
D03*
Y1575000D02*
D03*
X365000Y665000D02*
D03*
Y685000D02*
D03*
D20*
X690000Y327000D02*
D03*
X674000D02*
D03*
X552000Y1520000D02*
D03*
X568000D02*
D03*
X348000D02*
D03*
X332000D02*
D03*
X310000Y327000D02*
D03*
X326000D02*
D03*
X710000D02*
D03*
X726000D02*
D03*
X290000D02*
D03*
X274000D02*
D03*
D21*
X560000Y60300D02*
D03*
Y69700D02*
D03*
X407500Y830000D02*
D03*
Y820600D02*
D03*
X427500Y889400D02*
D03*
X427500Y880000D02*
D03*
X417500D02*
D03*
Y889400D02*
D03*
X407500Y870000D02*
D03*
Y860600D02*
D03*
X795000Y1230300D02*
D03*
Y1239700D02*
D03*
X774000Y1370300D02*
D03*
Y1379700D02*
D03*
X680000Y1420300D02*
D03*
Y1429700D02*
D03*
X830000Y1420300D02*
D03*
Y1429700D02*
D03*
X400000Y69700D02*
D03*
Y60300D02*
D03*
X800000Y69700D02*
D03*
Y60300D02*
D03*
X455000Y69700D02*
D03*
Y60300D02*
D03*
X855000Y69700D02*
D03*
Y60300D02*
D03*
X402500Y840600D02*
D03*
Y850000D02*
D03*
X407500Y670600D02*
D03*
Y680000D02*
D03*
X427500Y730000D02*
D03*
Y739400D02*
D03*
X417500D02*
D03*
Y730000D02*
D03*
X407500Y710600D02*
D03*
X407500Y720000D02*
D03*
X402500Y690600D02*
D03*
X402500Y700000D02*
D03*
X160000Y60300D02*
D03*
Y69700D02*
D03*
X692500Y1282200D02*
D03*
Y1272800D02*
D03*
X875000Y1255300D02*
D03*
Y1264700D02*
D03*
D22*
X685000Y475000D02*
D03*
X285000D02*
D03*
D23*
X665000Y461000D02*
D03*
Y489000D02*
D03*
X705000D02*
D03*
Y461000D02*
D03*
X265000D02*
D03*
Y489000D02*
D03*
X305000D02*
D03*
Y461000D02*
D03*
D24*
X665500Y465000D02*
D03*
X665500Y469000D02*
D03*
X665500Y473000D02*
D03*
X665500Y477000D02*
D03*
X665500Y481000D02*
D03*
Y485000D02*
D03*
X704500D02*
D03*
Y481000D02*
D03*
Y477000D02*
D03*
Y473000D02*
D03*
Y469000D02*
D03*
Y465000D02*
D03*
X265500D02*
D03*
Y469000D02*
D03*
Y473000D02*
D03*
Y477000D02*
D03*
Y481000D02*
D03*
Y485000D02*
D03*
X304500D02*
D03*
Y481000D02*
D03*
Y477000D02*
D03*
Y473000D02*
D03*
Y469000D02*
D03*
Y465000D02*
D03*
D25*
X671000Y495000D02*
D03*
X699000D02*
D03*
Y455000D02*
D03*
X671000D02*
D03*
X271000Y495000D02*
D03*
X299000D02*
D03*
Y455000D02*
D03*
X271000D02*
D03*
D26*
X675000Y494500D02*
D03*
X679000D02*
D03*
X683000D02*
D03*
X687000D02*
D03*
X691000D02*
D03*
X695000D02*
D03*
Y455500D02*
D03*
X691000D02*
D03*
X687000Y455500D02*
D03*
X683000Y455500D02*
D03*
X679000Y455500D02*
D03*
X675000Y455500D02*
D03*
X275000Y494500D02*
D03*
X279000D02*
D03*
X283000D02*
D03*
X287000D02*
D03*
X291000D02*
D03*
X295000D02*
D03*
Y455500D02*
D03*
X291000D02*
D03*
X287000D02*
D03*
X283000D02*
D03*
X279000D02*
D03*
X275000D02*
D03*
D29*
X742500Y242500D02*
D03*
X657500D02*
D03*
Y207500D02*
D03*
X742500D02*
D03*
X257500D02*
D03*
Y242500D02*
D03*
X342500Y207500D02*
D03*
Y242500D02*
D03*
D30*
X450000Y677500D02*
D03*
X450000Y669000D02*
D03*
X450000Y686000D02*
D03*
X450000Y699000D02*
D03*
X450000Y692500D02*
D03*
X425000Y669000D02*
D03*
Y692500D02*
D03*
X425000Y699000D02*
D03*
X425000Y677500D02*
D03*
Y686000D02*
D03*
X107500Y157500D02*
D03*
Y162500D02*
D03*
X450000Y836000D02*
D03*
X450000Y827500D02*
D03*
X425000Y836000D02*
D03*
X425000Y827500D02*
D03*
X450000Y849000D02*
D03*
X425000D02*
D03*
X450000Y842500D02*
D03*
X425000D02*
D03*
X450000Y819000D02*
D03*
X425000Y819000D02*
D03*
X507500Y157500D02*
D03*
Y162500D02*
D03*
D31*
X451500Y705500D02*
D03*
X423500Y705500D02*
D03*
X423500Y855500D02*
D03*
X451500Y855500D02*
D03*
D32*
X440000Y712500D02*
D03*
X435000D02*
D03*
X151000Y147500D02*
D03*
Y172500D02*
D03*
X127500Y147500D02*
D03*
Y172500D02*
D03*
X121000Y147500D02*
D03*
Y172500D02*
D03*
X142500Y147500D02*
D03*
X134000D02*
D03*
X142500Y172500D02*
D03*
X134000D02*
D03*
X440000Y862500D02*
D03*
X435000D02*
D03*
X551000Y147500D02*
D03*
Y172500D02*
D03*
X527500Y147500D02*
D03*
Y172500D02*
D03*
X521000Y147500D02*
D03*
Y172500D02*
D03*
X542500Y147500D02*
D03*
X534000D02*
D03*
X542500Y172500D02*
D03*
X534000D02*
D03*
D33*
X450000Y714500D02*
D03*
X430000Y714500D02*
D03*
X445000Y714500D02*
D03*
X425000D02*
D03*
X450000Y864500D02*
D03*
X425000D02*
D03*
X445000D02*
D03*
X430000Y864500D02*
D03*
D34*
X892500Y40000D02*
D03*
X857500D02*
D03*
X62500Y1620000D02*
D03*
X97500D02*
D03*
X597500Y40000D02*
D03*
X562500D02*
D03*
X197500D02*
D03*
X162500D02*
D03*
X132500Y1620000D02*
D03*
X167500D02*
D03*
X437500Y40000D02*
D03*
X402500D02*
D03*
X837500D02*
D03*
X802500D02*
D03*
X492500D02*
D03*
X457500D02*
D03*
D35*
X875000Y46500D02*
D03*
X80000Y1613500D02*
D03*
X580000Y46500D02*
D03*
X180000D02*
D03*
X150000Y1613500D02*
D03*
X420000Y46500D02*
D03*
X820000D02*
D03*
X475000D02*
D03*
D36*
X707000Y1372500D02*
D03*
X723000D02*
D03*
X652000Y415000D02*
D03*
X668000D02*
D03*
X723000Y1390000D02*
D03*
X707000D02*
D03*
X252000Y415000D02*
D03*
X268000D02*
D03*
D37*
X590000Y283000D02*
D03*
Y217000D02*
D03*
X305000Y1458000D02*
D03*
Y1392000D02*
D03*
X190000Y217000D02*
D03*
Y283000D02*
D03*
D38*
X770000Y1581000D02*
D03*
Y1539000D02*
D03*
X730000Y1581000D02*
D03*
Y1539000D02*
D03*
D40*
X742500Y1260490D02*
D03*
X817500D02*
D03*
Y1349510D02*
D03*
X742500D02*
D03*
D41*
X747500Y1260987D02*
D03*
X752500D02*
D03*
X757500D02*
D03*
X762500D02*
D03*
X767500D02*
D03*
X772500D02*
D03*
X777500D02*
D03*
X782500D02*
D03*
X787500D02*
D03*
X792500D02*
D03*
X797500D02*
D03*
X802500D02*
D03*
X807500D02*
D03*
X812500D02*
D03*
Y1349012D02*
D03*
X807500D02*
D03*
X802500D02*
D03*
X797500D02*
D03*
X792500D02*
D03*
X787500D02*
D03*
X782500D02*
D03*
X777500D02*
D03*
X772500D02*
D03*
X767500D02*
D03*
X762500D02*
D03*
X757500D02*
D03*
X752500D02*
D03*
X747500D02*
D03*
D42*
X824510Y1267500D02*
D03*
Y1342500D02*
D03*
X735490D02*
D03*
Y1267500D02*
D03*
D43*
X824013Y1272500D02*
D03*
Y1277500D02*
D03*
Y1282500D02*
D03*
Y1287500D02*
D03*
Y1292500D02*
D03*
Y1297500D02*
D03*
Y1302500D02*
D03*
Y1307500D02*
D03*
Y1312500D02*
D03*
Y1317500D02*
D03*
Y1322500D02*
D03*
Y1327500D02*
D03*
Y1332500D02*
D03*
Y1337500D02*
D03*
X735987D02*
D03*
Y1332500D02*
D03*
Y1327500D02*
D03*
Y1322500D02*
D03*
Y1317500D02*
D03*
Y1312500D02*
D03*
Y1307500D02*
D03*
Y1302500D02*
D03*
Y1297500D02*
D03*
Y1292500D02*
D03*
Y1287500D02*
D03*
Y1282500D02*
D03*
Y1277500D02*
D03*
Y1272500D02*
D03*
D44*
X695000Y415250D02*
D03*
X705000D02*
D03*
X695000Y384750D02*
D03*
X705000D02*
D03*
X295000Y415250D02*
D03*
X305000D02*
D03*
X295000Y384750D02*
D03*
X305000D02*
D03*
D45*
X235000Y1455000D02*
D03*
Y1385000D02*
D03*
X160000Y1455000D02*
D03*
Y1385000D02*
D03*
D46*
X575000Y1359000D02*
D03*
Y1289000D02*
D03*
D47*
X515000Y1368500D02*
D03*
Y1411500D02*
D03*
X380000Y1288500D02*
D03*
Y1331500D02*
D03*
X470000Y1288500D02*
D03*
Y1331500D02*
D03*
X425000Y1288500D02*
D03*
Y1331500D02*
D03*
X515000Y1288500D02*
D03*
Y1331500D02*
D03*
X380000Y1368500D02*
D03*
Y1411500D02*
D03*
X470000Y1368500D02*
D03*
Y1411500D02*
D03*
X425000Y1368500D02*
D03*
Y1411500D02*
D03*
D48*
X547500Y675000D02*
D03*
X547500Y705000D02*
D03*
X80000Y195000D02*
D03*
Y165000D02*
D03*
X477500Y825000D02*
D03*
X477500Y855000D02*
D03*
X512500Y825000D02*
D03*
X512500Y855000D02*
D03*
X547500Y825000D02*
D03*
Y855000D02*
D03*
X480000Y165000D02*
D03*
Y195000D02*
D03*
X477500Y675000D02*
D03*
Y705000D02*
D03*
X512500Y675000D02*
D03*
X512500Y705000D02*
D03*
D49*
X765000Y1605000D02*
D03*
X735000D02*
D03*
X115000Y650000D02*
D03*
X85000D02*
D03*
X220000D02*
D03*
X190000D02*
D03*
X137500Y1492500D02*
D03*
X167500D02*
D03*
D50*
X390000Y1097500D02*
D03*
Y1152500D02*
D03*
Y1242500D02*
D03*
Y1187500D02*
D03*
D51*
X569000Y1501000D02*
D03*
X551000D02*
D03*
D52*
X691000Y310000D02*
D03*
X673000D02*
D03*
X569000Y1540000D02*
D03*
X551000D02*
D03*
X331000D02*
D03*
X349000D02*
D03*
X327000Y310000D02*
D03*
X309000D02*
D03*
X709000D02*
D03*
X727000D02*
D03*
X273000D02*
D03*
X291000D02*
D03*
D53*
X827500Y1222500D02*
D03*
Y1237500D02*
D03*
D54*
X659500Y430000D02*
D03*
X650500D02*
D03*
X149000Y120000D02*
D03*
X140000D02*
D03*
X100000D02*
D03*
X109000D02*
D03*
X803500Y1219000D02*
D03*
X812500D02*
D03*
X714500Y1250000D02*
D03*
X705500D02*
D03*
X714500Y1300000D02*
D03*
X705500D02*
D03*
X714500Y1317500D02*
D03*
X705500D02*
D03*
X714500Y1335000D02*
D03*
X705500D02*
D03*
X714500Y1355000D02*
D03*
X705500D02*
D03*
X845500Y1265000D02*
D03*
X854500D02*
D03*
X845500Y1317500D02*
D03*
X854500D02*
D03*
X714500Y1272500D02*
D03*
X705500D02*
D03*
X334500Y450000D02*
D03*
X325500D02*
D03*
X734500D02*
D03*
X725500D02*
D03*
X235500Y475000D02*
D03*
X244500D02*
D03*
X635500D02*
D03*
X644500D02*
D03*
X275500Y515000D02*
D03*
X284500D02*
D03*
X675500Y515000D02*
D03*
X684500Y515000D02*
D03*
X304500D02*
D03*
X295500D02*
D03*
X704500Y515000D02*
D03*
X695500D02*
D03*
X275500Y435000D02*
D03*
X284500D02*
D03*
X675500D02*
D03*
X684500D02*
D03*
X540000Y120000D02*
D03*
X549000D02*
D03*
X509000D02*
D03*
X500000D02*
D03*
X882000Y1362500D02*
D03*
X873000D02*
D03*
X671500Y1302500D02*
D03*
X662500D02*
D03*
X668500Y1252500D02*
D03*
X677500D02*
D03*
X210500Y425000D02*
D03*
X219500D02*
D03*
X610500D02*
D03*
X619500D02*
D03*
X209500Y475000D02*
D03*
X200500D02*
D03*
X609500Y475000D02*
D03*
X600500Y475000D02*
D03*
X259500Y430000D02*
D03*
X250500D02*
D03*
D55*
X555000Y518000D02*
D03*
Y592000D02*
D03*
X85000Y533000D02*
D03*
Y607000D02*
D03*
X190000Y533000D02*
D03*
Y607000D02*
D03*
X75000Y1403000D02*
D03*
Y1477000D02*
D03*
X415000Y518000D02*
D03*
Y592000D02*
D03*
D56*
X906888Y1020018D02*
D03*
X911788Y968918D02*
D03*
Y944618D02*
D03*
D57*
X170000Y645500D02*
D03*
Y654500D02*
D03*
X397500Y821000D02*
D03*
Y830000D02*
D03*
X670000Y1420500D02*
D03*
Y1429500D02*
D03*
X820000Y1420500D02*
D03*
Y1429500D02*
D03*
X812500Y1239500D02*
D03*
Y1230500D02*
D03*
X797500Y1370500D02*
D03*
Y1379500D02*
D03*
X785000Y1239500D02*
D03*
Y1230500D02*
D03*
X766000Y1239500D02*
D03*
Y1230500D02*
D03*
X817500Y1365500D02*
D03*
Y1374500D02*
D03*
X787500Y1370500D02*
D03*
Y1379500D02*
D03*
X752500Y1370500D02*
D03*
Y1379500D02*
D03*
X742500Y1370500D02*
D03*
Y1379500D02*
D03*
X295000Y369000D02*
D03*
Y360000D02*
D03*
X695000Y369000D02*
D03*
Y360000D02*
D03*
X305000D02*
D03*
Y369000D02*
D03*
X705000D02*
D03*
Y360000D02*
D03*
X397500Y861000D02*
D03*
Y870000D02*
D03*
X397500Y680000D02*
D03*
X397500Y671000D02*
D03*
Y711000D02*
D03*
X397500Y720000D02*
D03*
D58*
X115000Y200000D02*
D03*
X145000D02*
D03*
X115000Y240000D02*
D03*
X145000D02*
D03*
X115000Y280000D02*
D03*
X145000Y280000D02*
D03*
X472500Y890000D02*
D03*
X442500D02*
D03*
X545000Y200000D02*
D03*
X515000D02*
D03*
X545000Y240000D02*
D03*
X515000D02*
D03*
X545000Y280000D02*
D03*
X515000D02*
D03*
X442500Y740000D02*
D03*
X472500D02*
D03*
D59*
X114500Y174000D02*
D03*
Y146000D02*
D03*
X514500Y174000D02*
D03*
Y146000D02*
D03*
D60*
X105500Y152500D02*
D03*
Y167500D02*
D03*
X105500Y147500D02*
D03*
Y172500D02*
D03*
X505500Y152500D02*
D03*
Y167500D02*
D03*
X505500Y147500D02*
D03*
Y172500D02*
D03*
D61*
X482500Y1237500D02*
D03*
X517500D02*
D03*
X482500Y1152500D02*
D03*
X517500D02*
D03*
D62*
X435600Y995000D02*
D03*
X445000D02*
D03*
X435600Y1057500D02*
D03*
X445000D02*
D03*
X140000Y130000D02*
D03*
X149400D02*
D03*
X90000Y150000D02*
D03*
X80600D02*
D03*
X90000Y130000D02*
D03*
X80600D02*
D03*
X100000D02*
D03*
X109400D02*
D03*
X120000Y125000D02*
D03*
X129400D02*
D03*
X563700Y1486000D02*
D03*
X554300D02*
D03*
X854700Y1295000D02*
D03*
X845300D02*
D03*
X705300Y1260000D02*
D03*
X714700D02*
D03*
X794300Y1208000D02*
D03*
X803700D02*
D03*
X854700Y1285000D02*
D03*
X845300D02*
D03*
X714700Y1345000D02*
D03*
X705300D02*
D03*
X325300Y500000D02*
D03*
X334700D02*
D03*
X725300D02*
D03*
X734700D02*
D03*
X325300Y475000D02*
D03*
X334700D02*
D03*
X725300D02*
D03*
X734700D02*
D03*
X549400Y130000D02*
D03*
X540000D02*
D03*
X480600Y150000D02*
D03*
X490000D02*
D03*
X480600Y130000D02*
D03*
X490000D02*
D03*
X509400D02*
D03*
X500000D02*
D03*
X529400Y125000D02*
D03*
X520000D02*
D03*
X705300Y1286000D02*
D03*
X714700D02*
D03*
X244700Y450000D02*
D03*
X235300D02*
D03*
X642700D02*
D03*
X633300D02*
D03*
X854700Y1275000D02*
D03*
X845300D02*
D03*
D63*
X673323Y1330823D02*
D03*
X666677Y1324177D02*
D03*
X652534Y1310034D02*
D03*
X659181Y1316681D02*
D03*
X685823Y1358323D02*
D03*
X679177Y1351677D02*
D03*
X665459Y1337959D02*
D03*
X672106Y1344606D02*
D03*
D64*
X330000Y560000D02*
D03*
X260000D02*
D03*
X330000Y630000D02*
D03*
X260000D02*
D03*
D65*
Y353000D02*
D03*
Y383000D02*
D03*
X660000Y355000D02*
D03*
Y385000D02*
D03*
D66*
X143000Y350000D02*
D03*
X217000D02*
D03*
X543000D02*
D03*
X617000D02*
D03*
D79*
X447500Y677498D02*
D03*
X427500Y677498D02*
D03*
X447501Y827500D02*
D03*
X427500Y827499D02*
D03*
D80*
X142500Y150000D02*
D03*
X142500Y170000D02*
D03*
X542500Y150000D02*
D03*
X542500Y170000D02*
D03*
D199*
X757600Y1282600D02*
D03*
Y1305000D02*
D03*
X757600Y1327400D02*
D03*
X780000Y1327400D02*
D03*
X802400Y1282600D02*
D03*
Y1305000D02*
D03*
X802401Y1327400D02*
D03*
D200*
X780000Y1282600D02*
D03*
Y1305000D02*
D03*
%TF.MD5,f74cb445a11541e56189da8e028731ab*%
M02*
