M48
;Layer_Color=9474304
;FILE_FORMAT=4:4
METRIC,LZ
;TYPE=PLATED
T01F00S00C0.2000
T02F00S00C0.2500
T03F00S00C0.9000
T04F00S00C1.0000
T05F00S00C1.1000
T06F00S00C1.4000
T07F00S00C1.6000
T08F00S00C1.7000
T09F00S00C2.7500
T10F00S00C3.2000
;TYPE=NON_PLATED
T11F00S00C3.2500
T12F00S00C3.7000
%
T01
X000995Y0014375
X004995
T02
X0001Y00045
X000175Y0006
X0001Y00075
X000175Y0009
X0001Y00105
X000175Y0012
X0001Y00135
X000175Y0015
X0001Y00165
X000175Y0018
X0001Y00195
X000175Y0021
X0001Y00225
X000175Y0024
X0001Y00255
X000175Y0027
X0001Y00285
X000175Y003
X0001Y00315
X000175Y0033
X0001Y00345
X000175Y0036
X0001Y00375
X000175Y0039
X001175Y00355
Y00345
X001685Y00345
X001685Y00355
X00155Y0026
X001Y002625
X0009
Y002525
X001
Y002425
X0009
Y002325
X001
Y002225
Y002125
X0009
Y002225
X0008
Y002125
X0007
Y002225
Y002325
X0008Y002325
Y002425
X0007
Y002525
Y002625
X0008Y002625
Y002525
X001Y002025
Y001925
X00062Y00174
Y00169
Y00164
Y00159
X00055Y0014
X00081Y00123
X001Y00108
X00121Y00137
X001275Y00137
X00149Y001131
X00205Y0005
X002525Y001375
X003475
X0037Y0024
Y0026
X0035
X0033
X0031Y00337
X0029
X002675Y00393
X0026
X002525
X005175Y00355
Y00345
X005685Y00345
X005685Y00355
X00555Y0026
X005Y002625
X0049
Y002525
X005
Y002425
X0049
Y002325
X005
Y002225
Y002125
X0049
Y002225
X0048
Y002125
X0047
Y002225
Y002325
X0048Y002325
Y002425
X0047
Y002525
Y002625
X0048Y002625
Y002525
X005Y002025
Y001925
X00462Y00174
Y00169
Y00164
Y00159
X00455Y00135
X00481Y00123
X005Y00108
X00521Y00137
X005275Y00137
X00549Y001131
X005Y0005
X00445
X00605
X006525Y001375
X007475
X0075Y0026
X0077
Y0024
X0073Y0026
X0071Y00337
X0069
X006675Y00395
X0066
X006525
X009825Y0039
X0099Y00375
X009825Y0036
X0099Y00345
X009825Y0033
X0099Y00315
X009825Y003
X0099Y00285
X009825Y0027
X0099Y00255
X009825Y0024
X0099Y00225
X009825Y0021
X0099Y00195
X009825Y0018
X0099Y00165
X009825Y0015
X0099Y00135
X009825Y0012
X0099Y00105
X009825Y0009
X0099Y00075
X009825Y0006
X0099Y00045
X009Y0005
X0089Y00055
X009Y00065
X0091Y00085
X0088Y00075
X00845Y0005
X0099Y00405
X009825Y0042
X0099Y00435
X009825Y0045
X0099Y00465
X009825Y0048
X0099Y00495
X009825Y0051
X0099Y00525
X009825Y0054
X0099Y00555
X009825Y0057
X0099Y00585
X009825Y006
X0099Y00615
X009825Y0063
X0099Y00645
X009825Y0066
X0099Y00675
X009825Y0069
X0099Y00705
X009825Y0072
X0099Y00735
X009825Y0075
X0099Y00765
X009825Y0078
X00955Y0066
X00755
X00742Y005
X00735Y00485
X00725Y00489
X007185Y00507
X00693268Y00504986
X0068777Y00508
X00678Y00505
X006755Y00522
X006845Y00522
X006955Y00522
X007045
X006905Y004805
X006905Y004695
X006795
Y004805
X00658Y00467
X00627751Y00475001
X00621Y00471
X006165Y00475
X0058Y0046
X0057Y0047
X0056Y0048
X0057Y00515
Y00525
Y00535
X00599Y00429
X006035Y00425
X006435Y0043
X006665
X006755Y00428
X007125Y00463
X00742Y00475
X007415Y0045
X004225Y004925
X00415
X004075
X004145Y006925
X004145Y00699
X00407Y007394
X004365Y00758
X004415
X004465
X004515
X0049Y0075
X005
X0051
X0052
X0053
X0054
Y0074
Y0073
Y0072
X0053
Y0073
Y0074
X0052
Y0073
Y0072
X0051
Y0073
Y0074
X005
X0049
Y0073
X005
Y0072
X0049
X0048
X0047
Y0066
Y0065
X0048
X0049
X005
X0051
X0052
X0053
X0054
X0055
Y0066
X0054
X0053
X0052
X0051
X005
X0049
X0048
X0062Y00792
X003855Y0072
X003906Y00671
X0039Y00625
X0038
X0037
X0036
Y00615
X0037
X0038
X0039
Y00605
X0038
X0037
X0036
Y00595
X0037
X0038
X0039
X00342Y005
Y00475
X003418Y0045
X00312Y00463
X002905Y004695
Y004805
X002795
Y004695
X002575Y00467
X0022775Y00475001
X00221Y00471
X002165Y00475
X00195Y005075
X00185
X00185Y005585
X00195Y005585
X0009
X0008Y005585
X0008Y005075
X0009
X000175Y0051
X0001Y00525
X000175Y0054
X0001Y00555
X000175Y0057
X0001Y00585
X000175Y006
X0001Y00615
X000175Y0063
X0001Y00645
X000175Y0066
X0001Y00675
X000175Y0069
X0001Y00705
X000175Y0072
X0001Y00735
X000175Y0075
X0001Y00765
X000175Y0078
X001414Y00785
X001614
X001814
X001914Y00775
X002014Y00765
X002114Y00755
X002214Y00765
X002314Y00755
X002214Y00745
X002014
X001914Y00755
X001814Y00745
Y00765
X001714Y00755
X001614Y00765
X001514Y00755
X001614Y00745
X001414
Y00765
X001514Y00775
X001714
X002014Y00785
X002214
X002114Y00775
X002314
X002414Y00765
Y00745
Y00785
X0023Y00656
Y0065
Y00644
X0017Y00662
X00125Y00656
Y0065
Y00644
X0001Y00495
X000175Y0048
X0001Y00465
X000175Y0045
X0001Y00435
X000175Y0042
X0001Y00405
X00199Y00429
X002035Y00425
X002435Y0043
X002665
X002755Y00428
X00278Y00505
X0028777Y00508
X00293268Y00504986
X002955Y00522
X003045
X002845Y00522
X002755Y00522
X002414Y00805
X002314Y00795
X002114
X002214Y00805
X002014
X001914Y00795
X001714
X001514
X001414Y00805
X001614Y00805
X001814
X0025765Y0087625
X0026765Y0086625
Y0088625
X0025765Y0089625
X0027765
X0028765Y0088625
Y0086625
X0029765Y0087625
Y0089625
X0028765Y0090625
Y0092625
X0027765Y0091625
X0025765
X0026765Y0092625
Y0090625
X0029765Y0091625
X0027765Y0087625
X003855Y0087
X003906Y00821
X00315Y009925
Y01055
X00365Y0117
X00375
X00385
X00395
X000175Y0117
X0001Y01185
Y01155
X000175Y0114
X0001Y01125
X000175Y0111
X0001Y01095
X000175Y0108
X0001Y01065
X000175Y0105
X0001Y01035
X000175Y0102
X0001Y01005
X000175Y0099
X0001Y00975
X000175Y0096
X0001Y00945
X000175Y0093
X0001Y00915
X000175Y009
X0001Y00885
X000175Y0087
X0001Y00855
X000175Y0084
X0001Y00825
X000175Y0081
X0001Y00795
X004145Y008425
X004145Y00849
X00407Y008894
X004365Y00908
X004415
X004465
X004515
X0047Y0087
X0048
X0049
Y0088
X005
Y0087
X0051
Y0088
Y0089
X005
X0049
X0052
Y0088
Y0087
X0057Y00867736
X006Y00881
X0061Y00893
X0058Y00906
X0059Y00843
X0055Y0081
X0054
X0054
X0053
X0052
X0051
X005
X0049
X0048
X0047
Y008
X0048
X0049
X005
X0051
X0052
X0053
X0054
X0055
X0074Y00817
X00721Y01083
X0073Y01097
X0051Y0107
Y0101
X0045615Y0102615
Y0096365
X00415Y0117
X00405
X0081Y01055
X00875Y0112
X009825Y0111
X0099Y01125
X009825Y0114
X0099Y01155
X009825Y0117
X0099Y01185
Y01095
X009825Y0108
X0099Y01065
X009825Y0105
X0099Y01035
X009825Y0102
X0099Y01005
X009825Y0099
X0099Y00975
X009825Y0096
X0099Y00945
X009825Y0093
X0099Y00915
X009825Y009
X0099Y00885
X009825Y0087
X0099Y00855
X009825Y0084
X0099Y00825
X009825Y0081
X0099Y00795
X009225Y01004406
X009825Y012
X0099Y01215
X009825Y0123
X0099Y01245
X009825Y0126
X0099Y01275
X009825Y0129
X0099Y01305
X009825Y0132
X0099Y01335
X009825Y0135
X0099Y01365
X009825Y0138
X0099Y01395
X009825Y0141
X0099Y01425
X009825Y0144
X0099Y01455
X009825Y0147
X0099Y01485
X009825Y015
X0099Y01515
X009825Y0153
X0099Y01545
X009825Y0156
X0099Y01575
X008775Y015025
X0081Y015
Y0146
Y0143
Y014
X00805Y01395
X008Y014
X00795Y01395
X007975Y013865
X00802439Y01365562
X00809Y01359
X008245Y013655
Y013745
X00838Y01359
X008355Y013425
X008405Y013325
X00845Y01325
X008375Y013225
X008315Y013275
X00851Y01342
X008615Y013175
X00864Y01295
Y01285
Y01275
X008615Y01265
X008455Y01258
X00845Y0125
X008275Y01245
X00818Y0123
X008125Y01212
X008275Y012155
X00795Y01223749
X00806Y01251
X00875Y01248
X00876768Y01301768
X008365Y012975
X00873Y0137
X00882
X00895Y0136
X00781249Y013705
Y013795
X00762Y01379
X00766Y0136
X0073
X00722Y01358
X00721Y01338
X007202Y013175
X006985
X006985Y01335
X006987Y01345
X006985Y01355
X006995Y01365
X00708Y01382
X00713
X00733Y0138
X0074Y0143
Y0145
X0075Y0148
X0072Y0149
X0069Y015
Y0146
Y0143
X006597Y0139
X00659Y01344418
X00647Y01315569
X006785Y013025
X0067925Y01296
X006985Y013
X00712995Y012943
X0072Y01293
X00726703Y01291114
X00727019Y01297376
X0077Y01295
X0079
Y01315
X0077
X00768Y01247
X00772Y0124
X00779Y0124
X00758135Y01239823
X00751865
X00748Y01245
X00746Y01235
X00757Y01233
X0076Y01225
X00745Y01221
X00739735Y01226541
X00733465
X00727Y01228
X00728Y01221
X00721Y012475
X006985Y0125
X006983Y0126
X00699027Y01266228
X0069937Y012725
X00702255Y01240664
X00695029Y0124207
X00690566Y01237567
X00691Y0123
X00683Y01239
X0068Y0122
X006615Y012525
X0066075Y01259
X0059Y0121
X00788049Y01208
X00785Y0122
Y0141
X00776Y0142
X0079Y0149
X006225Y014575
X00579Y0152
X0058Y0154
X0052Y0135
X0051
X00475
X00465
X0043
X0042
X00385
X00375
X00321Y0152
X00318Y0154
X0034Y0157
X00185Y0155
X001675Y01505
X001775Y014925
X001675Y0148
X00125Y0145
X00115
X00105
X00095
Y0146
X00105
X00115
X00105Y0147
X00095
Y0148
Y01415
X00105
Y01405
X00095
Y01395
X00105
Y01385
X00095
X000175Y0138
X0001Y01395
X000175Y0141
X0001Y01425
X000175Y0144
X0001Y01455
X000175Y0147
X0001Y01485
X000175Y015
X0001Y01515
X000175Y0153
X0001Y01545
X000175Y0156
X0001Y01575
X0013Y01565
X001825Y0139
X0001Y01365
X000175Y0135
X0001Y01335
X000175Y0132
X0001Y01305
X000175Y0129
X0001Y01275
X000175Y0126
X0001Y01245
X000175Y0123
X0001Y01215
X000175Y012
Y0159
X0005Y0161
X00605Y01595
X00615
X0071Y016
Y01612
X00722
Y016
X00778Y01598
Y01612
X00885Y01595
X00895
T03
X0040555Y014736
X0043095
X0045635
X0048175
X0050715
X0049445Y01499
X0046905
X0044365
X0041825
X0039285
X00382Y01588
Y016083
X00518
Y01588
T04
X00805Y00395
X008304
X008558
X008812
Y0048
X008558
X008304
X00805
X00678688Y00626618
X00653288
Y00652018
Y00677418
Y00702818
Y00728218
Y00753618
Y00779018
X00678688
Y00753618
Y00728218
Y00702818
Y00677418
Y00652018
Y00804418
X00653288
Y00829818
Y00855218
Y00880618
Y00906018
Y00931418
Y00956818
Y00982218
Y01007618
Y01033018
Y01058418
Y01083818
Y01109218
X00678688
Y01083818
Y01058418
Y01033018
Y01007618
Y00982218
Y00956818
Y00931418
Y00906018
Y00880618
Y00855218
Y00829818
X00925Y012188
Y012442
Y012696
Y01295
Y013204
Y013458
X00825Y0145
Y0147
Y0149
Y0151
X00675
Y0149
Y0147
Y0145
T05
X0011365Y006896
X0013905
X0016445
X0018985
X0021525
X0024145
X0026685
X002414Y0135
X00216
X001906
X001652
X001398
X001144
T06
X002875Y001005
X003125
X006875
X007125
X007978Y014473
X008522
Y015173
X007978
X007022
X006478
Y014473
X007022
T07
X0052745Y01532
X0037255
T08
X00215351Y01484272
X00294722Y01484222
X00255Y0154
T09
X00895988Y00577918
X00665988
Y01157918
X00895988
T10
X0006485Y00695
X0031515
Y01345
X0006485
T11
X0050715Y015625
X0039285
T12
X00895988Y00577918
X00665988
Y01157918
X00895988
M30
